<?xml version="1.0" encoding="UTF-8"?>
<svg id="a" data-name="Layer_1" xmlns="http://www.w3.org/2000/svg" viewBox="0 0 200.25 200">
  <path
    d="M150.59,63.96h-19.45l-4.63-12.99c-.66-1.82-2.38-3.03-4.32-3.03h-43.88c-1.93,0-3.66,1.22-4.3,3.03l-4.65,12.99h-19.45c-6.32,0-11.44,5.12-11.44,11.44v65.22c0,6.32,5.12,11.44,11.44,11.44h100.68c6.32,0,11.44-5.12,11.44-11.44v-65.22c0-6.32-5.12-11.44-11.44-11.44ZM151.74,140.62c0,.63-.51,1.14-1.14,1.14H49.91c-.63,0-1.14-.51-1.14-1.14v-65.22c0-.63.51-1.14,1.14-1.14h26.7l2.45-6.84,3.28-9.18h35.83l3.28,9.18,2.45,6.84h26.72c.63,0,1.14.51,1.14,1.14v65.22ZM100.25,83.41c-12.64,0-22.88,10.24-22.88,22.88s10.24,22.88,22.88,22.88,22.88-10.24,22.88-22.88-10.24-22.88-22.88-22.88ZM100.25,120.02c-7.58,0-13.73-6.15-13.73-13.73s6.15-13.73,13.73-13.73,13.73,6.15,13.73,13.73-6.15,13.73-13.73,13.73Z"
    fill="#c0c0c0"
  />
  <path
    d="M200.25,9.09v45.45c0,5.02-4.08,9.09-9.1,9.09s-9.1-4.07-9.1-9.09V18.18h-36.41c-5.03,0-9.1-4.07-9.1-9.09s4.08-9.09,9.1-9.09h45.51c5.03,0,9.1,4.07,9.1,9.09ZM54.61,181.82H18.2v-36.36c0-5.02-4.08-9.09-9.1-9.09s-9.1,4.07-9.1,9.09v45.45c0,5.02,4.08,9.09,9.1,9.09h45.51c5.03,0,9.1-4.07,9.1-9.09s-4.08-9.09-9.1-9.09ZM191.15,136.36c-5.03,0-9.1,4.07-9.1,9.09v36.36h-36.41c-5.03,0-9.1,4.07-9.1,9.09s4.08,9.09,9.1,9.09h45.51c5.03,0,9.1-4.07,9.1-9.09v-45.45c0-5.02-4.08-9.09-9.1-9.09ZM54.61,0H9.1C4.08,0,0,4.07,0,9.09v45.45c0,5.02,4.08,9.09,9.1,9.09s9.1-4.07,9.1-9.09V18.18h36.41c5.03,0,9.1-4.07,9.1-9.09S59.64,0,54.61,0Z"
    fill="#c0c0c0"
  />
</svg>